<svg version="1.0" xmlns="http://www.w3.org/2000/svg" width="933.333" height="933.333" viewBox="0 0 700 700"><path d="M110.9 37.2c-7.5 1-16.4 3.6-22.7 6.4-2.9 1.3-5.5 2.4-5.7 2.4-1.1 0-10.3 6.4-15.4 10.6-14.7 12.5-24.5 28.6-28.8 47.8-1.4 6.4-1.6 30.9-1.7 242.1-.1 129.2.2 238.1.6 242 1.7 14.4 7.5 28.7 16.8 41 5.9 7.8 5.5 7.4 14 14.5 10.4 8.8 24.5 15.4 38.3 18.1 9.1 1.8 474 2 484.7.2 14.6-2.4 23.8-6 35.7-14.1 18.9-12.8 33.4-36.5 36-58.5.4-3.4.7-112.4.7-242.2-.1-259 .3-241.2-5.9-257.1-3.7-9.3-12-21.6-19.7-29.1-9.7-9.5-16.6-14.1-28.2-18.7-15.7-6.3 2-5.9-257.2-6-129.8-.1-238.5.2-241.5.6zm71.2 44.7c.4 7.8 0 99.3-.4 99.8-.5.4-90.2.8-99.8.4-1.5-.1-1.6-3.2-1.6-31.6 0-17.3.3-33.6.7-36.2 2.5-15.3 15.8-29.2 31.5-32.8 3.2-.8 16.6-1.2 37.3-1.2 28.8 0 32.2.2 32.3 1.6zM474 204.1c0 98.4-.3 123.9-1.2 123.9-1.5.1-231.5.1-240.5 0H226V80.3h248v123.8zM591.4 82.4c11.3 4.1 19.1 11.3 24.5 22.6l3.6 7.5.1 34.7c.1 19.2-.1 34.8-.5 34.9-5.3.4-100.3 0-100.8-.4-.5-.5-.8-91.3-.4-99.8.1-1.5 3.2-1.7 34.4-1.5 29.9.2 34.8.5 39.1 2zM182.1 227.7c.4 9.1.3 98.7-.2 99.5-.6 1-99.1 1.4-100.7.4-.6-.3-.9-21.3-.9-51.1V226h50.8c47.8 0 50.9.1 51 1.7zM619.7 277v51l-6.1.1c-28.5.2-94.7-.1-95.3-.4-.6-.4-.9-88.7-.4-100 .1-1.6 3.2-1.7 50.9-1.7h50.9v51zm-438.2 95.4c.7.2.9 17.6.8 49.7-.1 27.2-.2 50-.2 50.6-.1 1-11 1.3-50.9 1.3H80.3V372.1l13.6-.3c17.6-.4 86.3.1 87.6.6zm291.8-.4c.4 0 .7 55.7.7 123.9v123.8H226V372.1l6.3-.3c4.4-.2 233.7 0 241 .2zm144.8.3c1.4.4 1.6 5.3 1.6 51.1V474h-50.8c-47.8 0-50.9-.1-51-1.8-.1-2.2-.1-98.5 0-99.4.2-1.3 95.6-1.7 100.2-.5zM180.5 517.9c2 .1 2 .7 1.8 48.8-.1 26.9-.2 49.8-.2 50.9-.1 2.2-.1 2.2-32.3 2.1-20.8 0-34.1-.4-37.3-1.2-13.9-3.2-24.6-12.8-30-27-1.8-4.5-2-8.1-2.1-39-.1-18.7-.1-34.2.1-34.5.2-.4 89.8-.4 100-.1zm438.1 0c1.5.1 1.6 61.4.2 68.6-2.8 13.6-12.2 24.7-25.8 30.5-5.4 2.3-6.3 2.4-40.2 2.6l-34.8.2-.1-3.1c-.1-4.1-.1-94.7 0-96.9.1-.9.9-1.8 1.8-2 1.3-.2 95-.1 98.9.1z"/></svg>