<svg aria-hidden="true" style="width:0;height:0;position:absolute;overflow:hidden" xmlns="http://www.w3.org/2000/svg"><defs><symbol id="icon-favorite" viewBox="0 0 34 32"><path d="m17.231 31.704-2.412-2.412C5.859 21.366.001 16.024.001 9.477.001 4.135 4.136 0 9.478 0c2.929 0 5.858 1.378 7.754 3.618C19.127 1.378 22.057 0 24.986 0c5.342 0 9.477 4.135 9.477 9.477 0 6.548-5.858 11.889-14.818 19.815l-2.412 2.412z"/></symbol><symbol id="close-icon__mob" viewBox="0 0 32 32"><path d="m17.253 16 7.369-7.369a.886.886 0 0 0-.047-1.207.89.89 0 0 0-1.206-.047L16 14.746 8.631 7.368A.892.892 0 0 0 7.369 8.63l7.378 7.369-7.378 7.369a.891.891 0 0 0-.05 1.304.89.89 0 0 0 1.304-.051l7.378-7.369 7.369 7.369a.885.885 0 0 0 1.206-.047.89.89 0 0 0 .047-1.206l-7.369-7.369z"/></symbol><symbol id="close-icon__desk" viewBox="0 0 32 32"><path d="m17.253 16 7.369-7.369a.885.885 0 0 0-.047-1.206.893.893 0 0 0-1.207-.047l-7.369 7.369L8.63 7.369a.892.892 0 0 0-1.262 1.262L14.746 16l-7.378 7.369a.891.891 0 0 0-.05 1.304.906.906 0 0 0 .663.26.88.88 0 0 0 .641-.31L16 17.254l7.369 7.369a.886.886 0 0 0 1.207-.047.893.893 0 0 0 .047-1.207L17.254 16z"/></symbol><symbol id="icon-logo" viewBox="0 0 32 32"><path d="M26.427 2.667H5.573a2.907 2.907 0 0 0-2.907 2.906v20.854a2.907 2.907 0 0 0 2.907 2.906h20.854a2.907 2.907 0 0 0 2.906-2.906V5.573a2.907 2.907 0 0 0-2.906-2.906ZM9.334 2.667v26.666M22.666 2.667v26.666M2.667 16h26.666M2.667 9.333h6.666M2.667 22.667h6.666M22.666 22.667h6.667M22.666 9.333h6.667" stroke="#fff" stroke-width="2" stroke-linecap="round" stroke-linejoin="round"/></symbol><symbol id="scroll-to-the-top" viewBox="0 0 32 32"><path d="M16 2.667c7.352 0 13.333 5.981 13.333 13.333S23.352 29.333 16 29.333 2.667 23.352 2.667 16 8.648 2.667 16 2.667zm0 2C9.751 4.667 4.667 9.751 4.667 16S9.751 27.333 16 27.333c6.249 0 11.333-5.084 11.333-11.333S22.249 4.667 16 4.667zm.709 7.902 4.628 4.649a1 1 0 0 1-1.416 1.41L16 14.691l-3.919 3.937a1.001 1.001 0 0 1-1.418-1.41l4.628-4.649c.375-.377 1.041-.377 1.417 0z"/></symbol></defs></svg>