<svg aria-hidden="true" style="position: absolute; width: 0; height: 0; overflow: hidden;" version="1.1" xmlns="http://www.w3.org/2000/svg" xmlns:xlink="http://www.w3.org/1999/xlink">
<defs>
<symbol id="icon-favorite" viewBox="0 0 34 32">
<path d="M17.231 31.704l-2.412-2.412c-8.96-7.926-14.818-13.268-14.818-19.815 0-5.342 4.135-9.477 9.477-9.477 2.929 0 5.858 1.378 7.754 3.618 1.895-2.24 4.825-3.618 7.754-3.618 5.342 0 9.477 4.135 9.477 9.477 0 6.548-5.858 11.889-14.818 19.815l-2.412 2.412z"></path>
</symbol>
<symbol id="close-icon__mob" viewBox="0 0 32 32">
<path d="m17.253 16 7.369-7.369a.886.886 0 0 0-.047-1.207.89.89 0 0 0-1.206-.047L16 14.746 8.631 7.368A.892.892 0 0 0 7.369 8.63l7.378 7.369-7.378 7.369a.891.891 0 0 0-.05 1.304.89.89 0 0 0 1.304-.051l7.378-7.369 7.369 7.369a.885.885 0 0 0 1.206-.047.89.89 0 0 0 .047-1.206l-7.369-7.369z"/>
</symbol>
<symbol id="close-icon__desk" viewBox="0 0 32 32">
<path d="m17.253 16 7.369-7.369a.885.885 0 0 0-.047-1.206.893.893 0 0 0-1.207-.047l-7.369 7.369L8.63 7.369a.892.892 0 0 0-1.262 1.262L14.746 16l-7.378 7.369a.891.891 0 0 0-.05 1.304.906.906 0 0 0 .663.26.88.88 0 0 0 .641-.31L16 17.254l7.369 7.369a.886.886 0 0 0 1.207-.047.893.893 0 0 0 .047-1.207L17.254 16z"/>
</symbol>
</defs>
</svg>
