<?xml version="1.0" standalone="no"?>
<!DOCTYPE svg PUBLIC "-//W3C//DTD SVG 20010904//EN"
 "http://www.w3.org/TR/2001/REC-SVG-20010904/DTD/svg10.dtd">
<svg version="1.0" xmlns="http://www.w3.org/2000/svg"
 width="700.000000pt" height="700.000000pt" viewBox="0 0 700.000000 700.000000"
 preserveAspectRatio="xMidYMid meet">
<metadata>
Created by potrace 1.14, written by Peter Selinger 2001-2017
</metadata>
<g transform="translate(0.000000,700.000000) scale(0.100000,-0.100000)"
fill="#000000" stroke="none">
<path d="M1109 6628 c-75 -10 -164 -36 -227 -64 -29 -13 -55 -24 -57 -24 -11
0 -103 -64 -154 -106 -147 -125 -245 -286 -288 -478 -14 -64 -16 -309 -17
-2421 -1 -1292 2 -2381 6 -2420 17 -144 75 -287 168 -410 59 -78 55 -74 140
-145 104 -88 245 -154 383 -181 91 -18 4740 -20 4847 -2 146 24 238 60 357
141 189 128 334 365 360 585 4 34 7 1124 7 2422 -1 2590 3 2412 -59 2571 -37
93 -120 216 -197 291 -97 95 -166 141 -282 187 -157 63 20 59 -2572 60 -1298
1 -2385 -2 -2415 -6z m712 -447 c4 -78 0 -993 -4 -998 -5 -4 -902 -8 -998 -4
-15 1 -16 32 -16 316 0 173 3 336 7 362 25 153 158 292 315 328 32 8 166 12
373 12 288 0 322 -2 323 -16z m2919 -1222 c0 -984 -3 -1239 -12 -1239 -15 -1
-2315 -1 -2405 0 l-63 0 0 1239 0 1238 1240 0 1240 0 0 -1238z m1174 1217
c113 -41 191 -113 245 -226 l36 -75 1 -347 c1 -192 -1 -348 -5 -349 -53 -4
-1003 0 -1008 4 -5 5 -8 913 -4 998 1 15 32 17 344 15 299 -2 348 -5 391 -20z
m-4093 -1453 c4 -91 3 -987 -2 -995 -6 -10 -991 -14 -1007 -4 -6 3 -9 213 -9
511 l0 505 508 0 c478 0 509 -1 510 -17z m4376 -493 l0 -510 -61 -1 c-285 -2
-947 1 -953 4 -6 4 -9 887 -4 1000 1 16 32 17 509 17 l509 0 0 -510z m-4382
-954 c7 -2 9 -176 8 -497 -1 -272 -2 -500 -2 -506 -1 -10 -110 -13 -509 -13
l-509 0 0 510 0 509 136 3 c176 4 863 -1 876 -6z m2918 4 c4 0 7 -557 7 -1239
l0 -1238 -1240 0 -1240 0 0 1238 0 1238 63 3 c44 2 2337 0 2410 -2z m1448 -3
c14 -4 16 -53 16 -511 l0 -506 -508 0 c-478 0 -509 1 -510 18 -1 22 -1 985 0
994 2 13 956 17 1002 5z m-4376 -1456 c20 -1 20 -7 18 -488 -1 -269 -2 -498
-2 -509 -1 -22 -1 -22 -323 -21 -208 0 -341 4 -373 12 -139 32 -246 128 -300
270 -18 45 -20 81 -21 390 -1 187 -1 342 1 345 2 4 898 4 1000 1z m4381 0 c15
-1 16 -614 2 -686 -28 -136 -122 -247 -258 -305 -54 -23 -63 -24 -402 -26
l-348 -2 -1 31 c-1 41 -1 947 0 969 1 9 9 18 18 20 13 2 950 1 989 -1z"/>
</g>
</svg>
